<svg width="16" height="16" viewBox="0 0 16 16" fill="none" xmlns="http://www.w3.org/2000/svg">
<path d="M3.33398 6.66668H4.66732C6.00065 6.66668 6.66732 6.00001 6.66732 4.66668V3.33334C6.66732 2.00001 6.00065 1.33334 4.66732 1.33334H3.33398C2.00065 1.33334 1.33398 2.00001 1.33398 3.33334V4.66668C1.33398 6.00001 2.00065 6.66668 3.33398 6.66668Z" stroke="#B3B3B3" stroke-miterlimit="10" stroke-linecap="round" stroke-linejoin="round"/>
<path d="M11.334 6.66668H12.6673C14.0007 6.66668 14.6673 6.00001 14.6673 4.66668V3.33334C14.6673 2.00001 14.0007 1.33334 12.6673 1.33334H11.334C10.0007 1.33334 9.33398 2.00001 9.33398 3.33334V4.66668C9.33398 6.00001 10.0007 6.66668 11.334 6.66668Z" stroke="#B3B3B3" stroke-miterlimit="10" stroke-linecap="round" stroke-linejoin="round"/>
<path d="M11.334 14.6667H12.6673C14.0007 14.6667 14.6673 14 14.6673 12.6667V11.3333C14.6673 10 14.0007 9.33334 12.6673 9.33334H11.334C10.0007 9.33334 9.33398 10 9.33398 11.3333V12.6667C9.33398 14 10.0007 14.6667 11.334 14.6667Z" stroke="#B3B3B3" stroke-miterlimit="10" stroke-linecap="round" stroke-linejoin="round"/>
<path d="M3.33398 14.6667H4.66732C6.00065 14.6667 6.66732 14 6.66732 12.6667V11.3333C6.66732 10 6.00065 9.33334 4.66732 9.33334H3.33398C2.00065 9.33334 1.33398 10 1.33398 11.3333V12.6667C1.33398 14 2.00065 14.6667 3.33398 14.6667Z" stroke="#B3B3B3" stroke-miterlimit="10" stroke-linecap="round" stroke-linejoin="round"/>
</svg>
