<svg width="17" height="16" viewBox="0 0 17 16" fill="none" xmlns="http://www.w3.org/2000/svg">
<path d="M10.7804 15.1666H7.18039C3.88706 15.1666 2.48706 13.76 2.48706 10.4733V7.47998C2.48706 7.20665 2.71373 6.97998 2.98706 6.97998C3.26039 6.97998 3.48706 7.20665 3.48706 7.47998V10.4733C3.48706 13.2 4.45373 14.1666 7.18039 14.1666H10.7737C13.5004 14.1666 14.4671 13.2 14.4671 10.4733V7.47998C14.4671 7.20665 14.6937 6.97998 14.9671 6.97998C15.2404 6.97998 15.4671 7.20665 15.4671 7.47998V10.4733C15.4737 13.76 14.0671 15.1666 10.7804 15.1666Z" fill="#B3B3B3"/>
<path d="M8.98055 8.50016C8.24722 8.50016 7.58055 8.2135 7.10722 7.68683C6.63388 7.16016 6.41388 6.4735 6.48722 5.74016L6.93388 1.28683C6.96055 1.0335 7.17388 0.833496 7.43388 0.833496H10.5472C10.8072 0.833496 11.0206 1.02683 11.0472 1.28683L11.4939 5.74016C11.5672 6.4735 11.3472 7.16016 10.8739 7.68683C10.3806 8.2135 9.71388 8.50016 8.98055 8.50016ZM7.88055 1.8335L7.48055 5.84016C7.43388 6.28683 7.56722 6.70683 7.84722 7.0135C8.41388 7.64016 9.54722 7.64016 10.1139 7.0135C10.3939 6.70016 10.5272 6.28016 10.4806 5.84016L10.0806 1.8335H7.88055Z" fill="#B3B3B3"/>
<path d="M13.1872 8.50016C11.8339 8.50016 10.6272 7.40683 10.4872 6.06016L10.0206 1.38683C10.0072 1.24683 10.0539 1.10683 10.1472 1.00016C10.2406 0.893496 10.3739 0.833496 10.5206 0.833496H12.5539C14.5139 0.833496 15.4272 1.6535 15.7006 3.66683L15.8872 5.52016C15.9672 6.30683 15.7272 7.0535 15.2139 7.62016C14.7006 8.18683 13.9806 8.50016 13.1872 8.50016ZM11.0739 1.8335L11.4872 5.96016C11.5739 6.7935 12.3472 7.50016 13.1872 7.50016C13.6939 7.50016 14.1472 7.30683 14.4739 6.9535C14.7939 6.60016 14.9406 6.12683 14.8939 5.62016L14.7072 3.78683C14.5006 2.28016 14.0139 1.8335 12.5539 1.8335H11.0739Z" fill="#B3B3B3"/>
<path d="M4.74048 8.50016C3.94715 8.50016 3.22715 8.18683 2.71382 7.62016C2.20048 7.0535 1.96048 6.30683 2.04048 5.52016L2.22048 3.68683C2.50048 1.6535 3.41382 0.833496 5.37382 0.833496H7.40715C7.54715 0.833496 7.68048 0.893496 7.78048 1.00016C7.88048 1.10683 7.92048 1.24683 7.90715 1.38683L7.44048 6.06016C7.30048 7.40683 6.09382 8.50016 4.74048 8.50016ZM5.37382 1.8335C3.91382 1.8335 3.42715 2.2735 3.21382 3.80016L3.03382 5.62016C2.98048 6.12683 3.13382 6.60016 3.45382 6.9535C3.77382 7.30683 4.22715 7.50016 4.74048 7.50016C5.58048 7.50016 6.36048 6.7935 6.44048 5.96016L6.85382 1.8335H5.37382Z" fill="#B3B3B3"/>
<path d="M10.6471 15.1668H7.31372C7.04039 15.1668 6.81372 14.9402 6.81372 14.6668V13.0002C6.81372 11.6002 7.58039 10.8335 8.98039 10.8335C10.3804 10.8335 11.1471 11.6002 11.1471 13.0002V14.6668C11.1471 14.9402 10.9204 15.1668 10.6471 15.1668ZM7.81372 14.1668H10.1471V13.0002C10.1471 12.1602 9.82039 11.8335 8.98039 11.8335C8.14039 11.8335 7.81372 12.1602 7.81372 13.0002V14.1668Z" fill="#B3B3B3"/>
</svg>
