<svg width="16" height="16" viewBox="0 0 16 16" fill="none" xmlns="http://www.w3.org/2000/svg">
<path d="M3.71326 15.1334C2.15326 15.1334 0.833261 13.8134 0.833261 12.2534V8.1467C0.799928 6.20003 1.51993 4.3667 2.86659 2.99337C4.21326 1.6267 6.01993 0.866699 7.96659 0.866699C11.9399 0.866699 15.1666 4.10003 15.1666 8.0667V12.1734C15.1666 13.76 13.8733 15.0534 12.2866 15.0534C10.7266 15.0534 9.40659 13.7334 9.40659 12.1734V10.3C9.40659 9.33337 10.1666 8.57337 11.1333 8.57337C12.0999 8.57337 12.8599 9.33337 12.8599 10.3V12.32C12.8599 12.5934 12.6333 12.82 12.3599 12.82C12.0866 12.82 11.8599 12.5934 11.8599 12.32V10.3C11.8599 9.8467 11.4933 9.57337 11.1333 9.57337C10.6799 9.57337 10.4066 9.94003 10.4066 10.3V12.1734C10.4066 13.1934 11.2666 14.0534 12.2866 14.0534C13.3066 14.0534 14.1666 13.1934 14.1666 12.1734V8.0667C14.1666 4.6467 11.3866 1.8667 7.96659 1.8667C6.29326 1.8667 4.73993 2.51337 3.57993 3.69337C2.41993 4.87337 1.79993 6.45337 1.83326 8.13337V12.2534C1.83326 13.2734 2.69326 14.1334 3.71326 14.1334C4.73326 14.1334 5.59326 13.2734 5.59326 12.2534V10.38C5.59326 9.9267 5.22659 9.65337 4.86659 9.65337C4.41326 9.65337 4.13993 10.02 4.13993 10.38V12.3267C4.13993 12.6 3.91326 12.8267 3.63993 12.8267C3.36659 12.8267 3.13993 12.6 3.13993 12.3267V10.38C3.13993 9.41337 3.89993 8.65337 4.86659 8.65337C5.83326 8.65337 6.59326 9.41337 6.59326 10.38V12.2534C6.59326 13.8134 5.27326 15.1334 3.71326 15.1334Z" fill="#B3B3B3"/>
</svg>
