<svg width="16" height="16" viewBox="0 0 16 16" fill="none" xmlns="http://www.w3.org/2000/svg">
<path d="M11.2532 13.4998C9.97321 13.4998 8.76655 12.8198 8.11321 11.7198C7.76655 11.1598 7.58655 10.5065 7.58655 9.83317C7.58655 7.81317 9.23321 6.1665 11.2532 6.1665C13.2732 6.1665 14.9199 7.81317 14.9199 9.83317C14.9199 10.5065 14.7332 11.1599 14.3865 11.7265C13.7399 12.8199 12.5399 13.4998 11.2532 13.4998ZM11.2532 7.1665C9.77988 7.1665 8.58655 8.35984 8.58655 9.83317C8.58655 10.3198 8.71988 10.7932 8.97321 11.1998C9.45321 12.0065 10.3265 12.4998 11.2532 12.4998C12.1999 12.4998 13.0532 12.0198 13.5332 11.2065C13.7865 10.7932 13.9199 10.3198 13.9199 9.83317C13.9199 8.35984 12.7265 7.1665 11.2532 7.1665Z" fill="#B3B3B3"/>
<path d="M12.4399 10.3198H10.0732C9.79991 10.3198 9.57324 10.0932 9.57324 9.81982C9.57324 9.54649 9.79991 9.31982 10.0732 9.31982H12.4399C12.7132 9.31982 12.9399 9.54649 12.9399 9.81982C12.9399 10.0932 12.7132 10.3198 12.4399 10.3198Z" fill="#B3B3B3"/>
<path d="M11.2533 11.5265C10.98 11.5265 10.7533 11.2998 10.7533 11.0265V8.6665C10.7533 8.39317 10.98 8.1665 11.2533 8.1665C11.5266 8.1665 11.7533 8.39317 11.7533 8.6665V11.0332C11.7533 11.3065 11.5333 11.5265 11.2533 11.5265Z" fill="#B3B3B3"/>
<path d="M7.2865 15.1668C6.9665 15.1668 6.6465 15.0868 6.35983 14.9268C5.7665 14.5935 5.41316 13.9935 5.41316 13.3202V9.7535C5.41316 9.42017 5.19316 8.91348 4.97983 8.65348L2.44649 5.99349C2.0265 5.56016 1.69983 4.8335 1.69983 4.30017V2.74683C1.69983 1.67349 2.51316 0.833496 3.5465 0.833496H12.4398C13.4598 0.833496 14.2865 1.66018 14.2865 2.68018V4.16016C14.2865 4.86016 13.8732 5.64685 13.4732 6.06018L12.2732 7.12016C12.1532 7.22682 11.9865 7.26681 11.8265 7.23348C11.6465 7.18681 11.4532 7.16683 11.2532 7.16683C9.77983 7.16683 8.5865 8.36016 8.5865 9.8335C8.5865 10.3202 8.71983 10.7935 8.97316 11.2068C9.1865 11.5602 9.47316 11.8535 9.80649 12.0602C9.95316 12.1535 10.0465 12.3135 10.0465 12.4868V12.7135C10.0465 13.2402 9.7265 13.9802 9.19316 14.2935L8.27316 14.8868C7.97316 15.0735 7.6265 15.1668 7.2865 15.1668ZM3.55316 1.8335C3.07983 1.8335 2.7065 2.23349 2.7065 2.74683V4.30017C2.7065 4.54017 2.9065 5.0335 3.17316 5.30017L5.73983 8.00016C6.07983 8.42016 6.41983 9.13351 6.41983 9.76017V13.3268C6.41983 13.7668 6.7265 13.9868 6.85316 14.0602C7.13983 14.2202 7.47983 14.2135 7.73983 14.0535L8.67316 13.4535C8.85316 13.3468 9.03316 13.0068 9.0465 12.7668C8.67983 12.4935 8.35983 12.1402 8.11983 11.7402C7.77316 11.1735 7.5865 10.5202 7.5865 9.85352C7.5865 7.83352 9.23316 6.18685 11.2532 6.18685C11.4398 6.18685 11.6265 6.20018 11.7998 6.22685L12.7865 5.35352C13.0132 5.12018 13.2932 4.56684 13.2932 4.1735V2.69348C13.2932 2.22681 12.9132 1.84684 12.4465 1.84684H3.55316V1.8335Z" fill="#B3B3B3"/>
</svg>
