<svg width="16" height="16" viewBox="0 0 16 16" fill="none" xmlns="http://www.w3.org/2000/svg">
<path d="M10 15.1654H6.00001C2.38001 15.1654 0.833344 13.6187 0.833344 9.9987V5.9987C0.833344 2.3787 2.38001 0.832031 6.00001 0.832031H7.33334C7.60668 0.832031 7.83334 1.0587 7.83334 1.33203C7.83334 1.60536 7.60668 1.83203 7.33334 1.83203H6.00001C2.92668 1.83203 1.83334 2.92536 1.83334 5.9987V9.9987C1.83334 13.072 2.92668 14.1654 6.00001 14.1654H10C13.0733 14.1654 14.1667 13.072 14.1667 9.9987V8.66536C14.1667 8.39203 14.3933 8.16536 14.6667 8.16536C14.94 8.16536 15.1667 8.39203 15.1667 8.66536V9.9987C15.1667 13.6187 13.62 15.1654 10 15.1654Z" fill="#B3B3B3"/>
<path d="M5.66667 11.7924C5.26 11.7924 4.88667 11.6457 4.61334 11.3791C4.28667 11.0524 4.14667 10.5791 4.22 10.0791L4.50667 8.0724C4.56 7.68573 4.81334 7.18573 5.08667 6.9124L10.34 1.65906C11.6667 0.332396 13.0133 0.332396 14.34 1.65906C15.0667 2.38573 15.3933 3.12573 15.3267 3.86573C15.2667 4.46573 14.9467 5.0524 14.34 5.6524L9.08667 10.9057C8.81334 11.1791 8.31334 11.4324 7.92667 11.4857L5.92 11.7724C5.83334 11.7924 5.74667 11.7924 5.66667 11.7924ZM11.0467 2.36573L5.79334 7.61906C5.66667 7.74573 5.52 8.03906 5.49334 8.2124L5.20667 10.2191C5.18 10.4124 5.22 10.5724 5.32 10.6724C5.42 10.7724 5.58 10.8124 5.77334 10.7857L7.78 10.4991C7.95334 10.4724 8.25334 10.3257 8.37334 10.1991L13.6267 4.94573C14.06 4.5124 14.2867 4.12573 14.32 3.76573C14.36 3.3324 14.1333 2.8724 13.6267 2.35906C12.56 1.2924 11.8267 1.5924 11.0467 2.36573Z" fill="#B3B3B3"/>
<path d="M13.2333 6.55221C13.1867 6.55221 13.14 6.54555 13.1 6.53221C11.3467 6.03888 9.95332 4.64555 9.45999 2.89221C9.38665 2.62555 9.53999 2.35221 9.80665 2.27221C10.0733 2.19888 10.3467 2.35221 10.42 2.61888C10.82 4.03888 11.9467 5.16555 13.3667 5.56555C13.6333 5.63888 13.7867 5.91888 13.7133 6.18554C13.6533 6.41221 13.4533 6.55221 13.2333 6.55221Z" fill="#B3B3B3"/>
</svg>
