<svg width="16" height="16" viewBox="0 0 16 16" fill="none" xmlns="http://www.w3.org/2000/svg">
<path d="M7.4 15.1654H4.6C1.99333 15.1654 0.833328 14.0054 0.833328 11.3987V8.5987C0.833328 5.99203 1.99333 4.83203 4.6 4.83203H7.4C10.0067 4.83203 11.1667 5.99203 11.1667 8.5987V11.3987C11.1667 14.0054 10.0067 15.1654 7.4 15.1654ZM4.6 5.83203C2.53333 5.83203 1.83333 6.53203 1.83333 8.5987V11.3987C1.83333 13.4654 2.53333 14.1654 4.6 14.1654H7.4C9.46666 14.1654 10.1667 13.4654 10.1667 11.3987V8.5987C10.1667 6.53203 9.46666 5.83203 7.4 5.83203H4.6Z" fill="#B3B3B3"/>
<path d="M11.4 11.1654H10.6667C10.3933 11.1654 10.1667 10.9387 10.1667 10.6654V8.5987C10.1667 6.53203 9.46666 5.83203 7.4 5.83203H5.33333C5.05999 5.83203 4.83333 5.60536 4.83333 5.33203V4.5987C4.83333 1.99203 5.99333 0.832031 8.59999 0.832031H11.4C14.0067 0.832031 15.1667 1.99203 15.1667 4.5987V7.3987C15.1667 10.0054 14.0067 11.1654 11.4 11.1654ZM11.1667 10.1654H11.4C13.4667 10.1654 14.1667 9.46537 14.1667 7.3987V4.5987C14.1667 2.53203 13.4667 1.83203 11.4 1.83203H8.59999C6.53333 1.83203 5.83333 2.53203 5.83333 4.5987V4.83203H7.4C10.0067 4.83203 11.1667 5.99203 11.1667 8.5987V10.1654Z" fill="#B3B3B3"/>
</svg>
