<svg width="16" height="16" viewBox="0 0 16 16" fill="none" xmlns="http://www.w3.org/2000/svg">
<path d="M8 10.5C6.62 10.5 5.5 9.38 5.5 8C5.5 6.62 6.62 5.5 8 5.5C9.38 5.5 10.5 6.62 10.5 8C10.5 9.38 9.38 10.5 8 10.5ZM8 6.5C7.17333 6.5 6.5 7.17333 6.5 8C6.5 8.82667 7.17333 9.5 8 9.5C8.82667 9.5 9.5 8.82667 9.5 8C9.5 7.17333 8.82667 6.5 8 6.5Z" fill="#B3B3B3"/>
<path d="M10.1407 14.7942C10.0007 14.7942 9.86065 14.7742 9.72065 14.7408C9.30732 14.6275 8.96065 14.3675 8.74065 14.0008L8.66065 13.8675C8.26732 13.1875 7.72732 13.1875 7.33398 13.8675L7.26065 13.9942C7.04065 14.3675 6.69398 14.6342 6.28065 14.7408C5.86065 14.8542 5.42732 14.7942 5.06065 14.5742L3.91398 13.9142C3.50732 13.6808 3.21398 13.3008 3.08732 12.8408C2.96732 12.3808 3.02732 11.9075 3.26065 11.5008C3.45398 11.1608 3.50732 10.8542 3.39398 10.6608C3.28065 10.4675 2.99398 10.3542 2.60065 10.3542C1.62732 10.3542 0.833984 9.56084 0.833984 8.58751V7.41418C0.833984 6.44084 1.62732 5.64751 2.60065 5.64751C2.99398 5.64751 3.28065 5.53418 3.39398 5.34084C3.50732 5.14751 3.46065 4.84084 3.26065 4.50084C3.02732 4.09418 2.96732 3.61418 3.08732 3.16084C3.20732 2.70084 3.50065 2.32084 3.91398 2.08751L5.06732 1.42751C5.82065 0.980842 6.81398 1.24084 7.26732 2.00751L7.34732 2.14084C7.74065 2.82084 8.28065 2.82084 8.67398 2.14084L8.74732 2.01418C9.20065 1.24084 10.194 0.980842 10.954 1.43418L12.1007 2.09418C12.5073 2.32751 12.8007 2.70751 12.9273 3.16751C13.0473 3.62751 12.9873 4.10084 12.754 4.50751C12.5607 4.84751 12.5073 5.15418 12.6207 5.34751C12.734 5.54084 13.0207 5.65418 13.414 5.65418C14.3873 5.65418 15.1807 6.44751 15.1807 7.42084V8.59418C15.1807 9.56751 14.3873 10.3608 13.414 10.3608C13.0207 10.3608 12.734 10.4742 12.6207 10.6675C12.5073 10.8608 12.554 11.1675 12.754 11.5075C12.9873 11.9142 13.054 12.3942 12.9273 12.8475C12.8073 13.3075 12.514 13.6875 12.1007 13.9208L10.9473 14.5808C10.694 14.7208 10.4207 14.7942 10.1407 14.7942ZM8.00065 12.3275C8.59398 12.3275 9.14732 12.7008 9.52732 13.3608L9.60065 13.4875C9.68065 13.6275 9.81398 13.7275 9.97398 13.7675C10.134 13.8075 10.294 13.7875 10.4273 13.7075L11.5807 13.0408C11.754 12.9408 11.8873 12.7742 11.9407 12.5742C11.994 12.3742 11.9673 12.1675 11.8673 11.9942C11.4873 11.3408 11.4407 10.6675 11.734 10.1542C12.0273 9.64084 12.634 9.34751 13.394 9.34751C13.8207 9.34751 14.1607 9.00751 14.1607 8.58084V7.40751C14.1607 6.98751 13.8207 6.64084 13.394 6.64084C12.634 6.64084 12.0273 6.34751 11.734 5.83418C11.4407 5.32084 11.4873 4.64751 11.8673 3.99418C11.9673 3.82084 11.994 3.61418 11.9407 3.41418C11.8873 3.21418 11.7607 3.05418 11.5873 2.94751L10.434 2.28751C10.1473 2.11418 9.76732 2.21418 9.59398 2.50751L9.52065 2.63418C9.14065 3.29418 8.58732 3.66751 7.99398 3.66751C7.40065 3.66751 6.84732 3.29418 6.46732 2.63418L6.39398 2.50084C6.22732 2.22084 5.85398 2.12084 5.56732 2.28751L4.41398 2.95418C4.24065 3.05418 4.10732 3.22084 4.05398 3.42084C4.00065 3.62084 4.02732 3.82751 4.12732 4.00084C4.50732 4.65418 4.55398 5.32751 4.26065 5.84084C3.96732 6.35418 3.36065 6.64751 2.60065 6.64751C2.17398 6.64751 1.83398 6.98751 1.83398 7.41418V8.58751C1.83398 9.00751 2.17398 9.35418 2.60065 9.35418C3.36065 9.35418 3.96732 9.64751 4.26065 10.1608C4.55398 10.6742 4.50732 11.3475 4.12732 12.0008C4.02732 12.1742 4.00065 12.3808 4.05398 12.5808C4.10732 12.7808 4.23398 12.9408 4.40732 13.0475L5.56065 13.7075C5.70065 13.7942 5.86732 13.8142 6.02065 13.7742C6.18065 13.7342 6.31398 13.6275 6.40065 13.4875L6.47398 13.3608C6.85398 12.7075 7.40732 12.3275 8.00065 12.3275Z" fill="#B3B3B3"/>
</svg>
