<svg width="16" height="16" viewBox="0 0 16 16" fill="none" xmlns="http://www.w3.org/2000/svg">
<path d="M4.83337 4.66634H11.1667V3.33301C11.1667 1.99967 10.6667 1.33301 9.16671 1.33301H6.83337C5.33337 1.33301 4.83337 1.99967 4.83337 3.33301V4.66634Z" stroke="#B3B3B3" stroke-width="1.5" stroke-miterlimit="10" stroke-linecap="round" stroke-linejoin="round"/>
<path d="M10.6667 10V12.6667C10.6667 14 10 14.6667 8.66671 14.6667H7.33337C6.00004 14.6667 5.33337 14 5.33337 12.6667V10H10.6667Z" stroke="#B3B3B3" stroke-width="1.5" stroke-miterlimit="10" stroke-linecap="round" stroke-linejoin="round"/>
<path d="M14 6.66699V10.0003C14 11.3337 13.3333 12.0003 12 12.0003H10.6667V10.0003H5.33333V12.0003H4C2.66667 12.0003 2 11.3337 2 10.0003V6.66699C2 5.33366 2.66667 4.66699 4 4.66699H12C13.3333 4.66699 14 5.33366 14 6.66699Z" stroke="#B3B3B3" stroke-width="1.5" stroke-miterlimit="10" stroke-linecap="round" stroke-linejoin="round"/>
<path d="M11.3333 10H10.5266H4.66663" stroke="#B3B3B3" stroke-width="1.5" stroke-miterlimit="10" stroke-linecap="round" stroke-linejoin="round"/>
<path d="M4.66663 7.33301H6.66663" stroke="#B3B3B3" stroke-width="1.5" stroke-miterlimit="10" stroke-linecap="round" stroke-linejoin="round"/>
</svg>
