<svg width="16" height="16" viewBox="0 0 16 16" fill="none" xmlns="http://www.w3.org/2000/svg">
<path d="M4 6.66634V5.33301C4 3.12634 4.66667 1.33301 8 1.33301C11.3333 1.33301 12 3.12634 12 5.33301V6.66634" stroke="#B3B3B3" stroke-linecap="round" stroke-linejoin="round"/>
<path d="M7.9987 12.3333C8.91917 12.3333 9.66536 11.5871 9.66536 10.6667C9.66536 9.74619 8.91917 9 7.9987 9C7.07822 9 6.33203 9.74619 6.33203 10.6667C6.33203 11.5871 7.07822 12.3333 7.9987 12.3333Z" stroke="#B3B3B3" stroke-linecap="round" stroke-linejoin="round"/>
<path d="M11.332 14.667H4.66536C1.9987 14.667 1.33203 14.0003 1.33203 11.3337V10.0003C1.33203 7.33366 1.9987 6.66699 4.66536 6.66699H11.332C13.9987 6.66699 14.6654 7.33366 14.6654 10.0003V11.3337C14.6654 14.0003 13.9987 14.667 11.332 14.667Z" stroke="#B3B3B3" stroke-linecap="round" stroke-linejoin="round"/>
</svg>
