<svg width="24" height="24" viewBox="0 0 24 24" fill="none" xmlns="http://www.w3.org/2000/svg">
<path d="M21 22.25H3C2.86614 22.25 2.75 22.1339 2.75 22C2.75 21.8661 2.86614 21.75 3 21.75H21C21.1339 21.75 21.25 21.8661 21.25 22C21.25 22.1339 21.1339 22.25 21 22.25Z" fill="#4D4D4D" stroke="#4D4D4D"/>
<path d="M4.5 8.62988V8.61987H4C3.58386 8.61987 3.25 8.95373 3.25 9.36987V17.9999C3.25 18.416 3.58386 18.7499 4 18.7499H5.59998C6.01612 18.7499 6.34998 18.416 6.34998 17.9999V9.37988C6.34998 8.96374 6.01612 8.62988 5.59998 8.62988H4.5ZM5.59998 19.2499H4C3.31614 19.2499 2.75 18.6837 2.75 17.9999V9.37988C2.75 8.69603 3.31614 8.12988 4 8.12988H5.59998C6.28383 8.12988 6.84998 8.69603 6.84998 9.37988V17.9999C6.84998 18.6837 6.28383 19.2499 5.59998 19.2499Z" fill="#4D4D4D" stroke="#4D4D4D"/>
<path d="M12.8002 19.2499H11.2002C10.5163 19.2499 9.9502 18.6838 9.9502 17.9999V6.18994C9.9502 5.50608 10.5163 4.93994 11.2002 4.93994H12.8002C13.484 4.93994 14.0502 5.50608 14.0502 6.18994V17.9999C14.0502 18.6838 13.484 19.2499 12.8002 19.2499ZM11.2002 5.43994C10.7841 5.43994 10.4502 5.7738 10.4502 6.18994V17.9999C10.4502 18.4161 10.7841 18.7499 11.2002 18.7499H12.8002C13.2163 18.7499 13.5502 18.4161 13.5502 17.9999V6.18994C13.5502 5.7738 13.2163 5.43994 12.8002 5.43994H11.2002Z" fill="#4D4D4D" stroke="#4D4D4D"/>
<path d="M19.9999 19.25H18.3999C17.716 19.25 17.1499 18.6839 17.1499 18V3C17.1499 2.31614 17.716 1.75 18.3999 1.75H19.9999C20.6837 1.75 21.2499 2.31614 21.2499 3V18C21.2499 18.6839 20.6837 19.25 19.9999 19.25ZM18.3999 2.25C17.9838 2.25 17.6499 2.58386 17.6499 3V18C17.6499 18.4161 17.9838 18.75 18.3999 18.75H19.9999C20.416 18.75 20.7499 18.4161 20.7499 18V3C20.7499 2.58386 20.416 2.25 19.9999 2.25H18.3999Z" fill="#4D4D4D" stroke="#4D4D4D"/>
</svg>
