<svg width="16" height="16" viewBox="0 0 16 16" fill="none" xmlns="http://www.w3.org/2000/svg">
<path d="M8.01455 13.6863C6.46122 13.6863 4.90788 13.4396 3.43455 12.9463C2.87455 12.753 2.44788 12.3596 2.26121 11.8463C2.06788 11.333 2.13455 10.7663 2.44121 10.2596L3.20788 8.98629C3.36788 8.71962 3.51455 8.18629 3.51455 7.87296V5.94629C3.51455 3.46629 5.53455 1.44629 8.01455 1.44629C10.4945 1.44629 12.5145 3.46629 12.5145 5.94629V7.87296C12.5145 8.17962 12.6612 8.71962 12.8212 8.99296L13.5812 10.2596C13.8679 10.7396 13.9212 11.3196 13.7279 11.8463C13.5345 12.373 13.1145 12.773 12.5879 12.9463C11.1212 13.4396 9.56788 13.6863 8.01455 13.6863ZM8.01455 2.44629C6.08788 2.44629 4.51455 4.01296 4.51455 5.94629V7.87296C4.51455 8.35962 4.31455 9.07962 4.06788 9.49962L3.30121 10.773C3.15455 11.0196 3.11455 11.2796 3.20121 11.4996C3.28121 11.7263 3.48121 11.8996 3.75455 11.993C6.54121 12.9263 9.49455 12.9263 12.2812 11.993C12.5212 11.913 12.7079 11.733 12.7945 11.493C12.8812 11.253 12.8612 10.993 12.7279 10.773L11.9612 9.49962C11.7079 9.06629 11.5145 8.35296 11.5145 7.86629V5.94629C11.5145 4.01296 9.94788 2.44629 8.01455 2.44629Z" fill="#B3B3B3"/>
<path d="M9.25504 2.62711C9.20837 2.62711 9.1617 2.62044 9.11504 2.60711C8.9217 2.55378 8.73504 2.51378 8.55504 2.48711C7.98837 2.41378 7.4417 2.45378 6.92837 2.60711C6.7417 2.66711 6.5417 2.60711 6.41504 2.46711C6.28837 2.32711 6.24837 2.12711 6.3217 1.94711C6.59504 1.24711 7.2617 0.787109 8.0217 0.787109C8.7817 0.787109 9.44837 1.24044 9.7217 1.94711C9.78837 2.12711 9.75504 2.32711 9.62837 2.46711C9.52837 2.57378 9.38837 2.62711 9.25504 2.62711Z" fill="#B3B3B3"/>
<path d="M8.01172 15.207C7.35172 15.207 6.71172 14.9404 6.24505 14.4737C5.77839 14.007 5.51172 13.367 5.51172 12.707H6.51172C6.51172 13.1004 6.67172 13.487 6.95172 13.767C7.23172 14.047 7.61839 14.207 8.01172 14.207C8.83839 14.207 9.51172 13.5337 9.51172 12.707H10.5117C10.5117 14.087 9.39172 15.207 8.01172 15.207Z" fill="#B3B3B3"/>
</svg>
